<?xml version="1.0" encoding="utf-8"?>
<!-- Generator: Adobe Illustrator 25.2.0, SVG Export Plug-In . SVG Version: 6.00 Build 0)  -->
<svg version="1.1" id="Layer_1" xmlns="http://www.w3.org/2000/svg" xmlns:xlink="http://www.w3.org/1999/xlink" x="0px" y="0px"
	 viewBox="0 0 234 252" style="enable-background:new 0 0 234 252;" xml:space="preserve">
<style type="text/css">
	.st0{fill:url(#SVGID_1_);}
	.st1{fill:url(#SVGID_2_);}
	.st2{fill:url(#SVGID_3_);}
	.st3{fill:url(#SVGID_4_);}
	.st4{fill:url(#SVGID_5_);}
	.st5{fill:url(#SVGID_6_);}
	.st6{fill:url(#SVGID_7_);}
	.st7{fill:url(#SVGID_8_);}
	.st8{fill:url(#SVGID_9_);}
	.st9{fill:url(#SVGID_10_);}
	.st10{fill:#FFFFFF;}
	.st11{fill:url(#SVGID_11_);}
	.st12{fill:url(#SVGID_12_);}
	.st13{fill:url(#SVGID_13_);}
	.st14{fill:url(#SVGID_14_);}
	.st15{fill:url(#SVGID_15_);}
	.st16{fill:url(#SVGID_16_);}
	.st17{fill:url(#SVGID_17_);}
	.st18{fill:url(#SVGID_18_);}
	.st19{fill:url(#SVGID_19_);}
	.st20{fill:url(#SVGID_20_);}
	.st21{fill:url(#SVGID_21_);}
	.st22{fill:url(#SVGID_22_);}
	.st23{fill:url(#SVGID_23_);}
	.st24{fill:url(#SVGID_24_);}
	.st25{fill:url(#SVGID_25_);}
	.st26{fill:url(#SVGID_26_);}
	.st27{fill:url(#SVGID_27_);}
	.st28{fill:url(#SVGID_28_);}
	.st29{fill:url(#SVGID_29_);}
	.st30{fill:url(#SVGID_30_);}
	.st31{fill:url(#SVGID_31_);}
	.st32{fill:url(#SVGID_32_);}
	.st33{fill:url(#SVGID_33_);}
	.st34{fill:url(#SVGID_34_);}
	.st35{fill:url(#SVGID_35_);}
	.st36{fill:url(#SVGID_36_);}
	.st37{fill:url(#SVGID_37_);}
	.st38{fill:url(#SVGID_38_);}
	.st39{fill:url(#SVGID_39_);}
	.st40{fill:url(#SVGID_40_);}
	.st41{fill:url(#SVGID_41_);}
	.st42{fill:url(#SVGID_42_);}
	.st43{fill:url(#SVGID_43_);}
	.st44{fill:url(#SVGID_44_);}
	.st45{fill:url(#SVGID_45_);}
	.st46{fill:url(#SVGID_46_);}
	.st47{fill:url(#SVGID_47_);}
	.st48{fill:url(#SVGID_48_);}
	.st49{fill:url(#SVGID_49_);}
	.st50{fill:url(#SVGID_50_);}
	.st51{fill:url(#SVGID_51_);}
	.st52{fill:url(#SVGID_52_);}
	.st53{fill:url(#SVGID_53_);}
	.st54{fill:url(#SVGID_54_);}
	.st55{fill:url(#SVGID_55_);}
	.st56{fill:url(#SVGID_56_);}
	.st57{fill:#282828;}
	.st58{fill:url(#SVGID_57_);}
	.st59{fill:url(#SVGID_58_);}
	.st60{fill:url(#SVGID_59_);}
	.st61{fill:url(#SVGID_60_);}
	.st62{fill:url(#SVGID_61_);}
	.st63{fill:url(#SVGID_62_);}
	.st64{fill:url(#SVGID_63_);}
	.st65{fill:url(#SVGID_64_);}
	.st66{fill:url(#SVGID_65_);}
	.st67{fill:url(#SVGID_66_);}
	.st68{fill:url(#SVGID_67_);}
	.st69{fill:url(#SVGID_68_);}
	.st70{fill:#555ABE;}
	.st71{fill:#5660BA;}
	.st72{fill:url(#SVGID_69_);}
	.st73{fill:url(#SVGID_70_);}
	.st74{fill:url(#SVGID_71_);}
	.st75{fill:url(#SVGID_72_);}
	.st76{fill:url(#SVGID_73_);}
	.st77{fill:url(#SVGID_74_);}
	.st78{fill:url(#SVGID_75_);}
	.st79{fill:url(#SVGID_76_);}
	.st80{fill:url(#SVGID_77_);}
	.st81{fill:url(#SVGID_78_);}
	.st82{fill:url(#SVGID_79_);}
	.st83{fill:url(#SVGID_80_);}
	.st84{fill:url(#SVGID_81_);}
	.st85{fill:url(#SVGID_82_);}
	.st86{fill:url(#SVGID_83_);}
	.st87{fill:url(#SVGID_84_);}
	.st88{fill:url(#SVGID_85_);}
	.st89{fill:url(#SVGID_86_);}
</style>
<linearGradient id="SVGID_1_" gradientUnits="userSpaceOnUse" x1="82.2343" y1="40.6205" x2="108.4726" y2="40.6205">
	<stop  offset="0.4541" style="stop-color:#FFFFFF"/>
	<stop  offset="0.9966" style="stop-color:#EFEFEF"/>
</linearGradient>
<path class="st0" d="M84,72.3c0.9-0.4,2.1-0.9,3.6-1.2c1.2-0.3,2.3-0.4,3.2-0.4c0.2-0.1,0.4-0.2,0.5-0.3c0.2,0.1,0.6,0.2,1,0.1
	c0.5-0.1,0.9-0.3,1.1-0.4c3-3.3,4.1-4.8,4.3-5.4c0-0.1,0.2-0.5,0.5-0.9c0.3-0.4,0.7-0.7,1-0.9c0.8-1,1.6-2.2,2.4-3.5
	c1.8-3,2.9-5.8,3.7-8.2c-0.3-1-0.8-3.3,0-6.1c0.7-2.6,2.2-4.2,3-4.9c0.1-0.5,0.1-1.1,0.2-1.6c-0.1-0.2-0.3-0.5-0.4-0.7
	c-0.1,0-0.1,0-0.3,0c-0.1,0-0.2-0.1-0.2-0.2c0.4-2.5,1-8.2-1.7-14.5c-4.2-9.7-13.1-13.4-15-14.1c1.8,1.4,5.3,4.8,7.2,10.3
	c3,9.2-1.1,17-1.9,18.5c-0.1,0-0.2,0-0.3,0c-0.8,0.8-1.2,1.5-1,1.9c0.1,0.3,0.3,0.4,0.3,0.4c0.1,0.1,0.2,0.1,0.3,0.1
	c2.2,0.7,3.5,2.9,3.2,5c-0.3,1.7-1.6,3.1-3.3,3.6c0.2,0.5,0.5,1.7,0.1,3c-0.7,2.6-3.3,3.5-3.5,3.6c0,0.2-0.1,3.4-2.2,4.3
	c-0.3,0.1-0.6,0.2-1,0.2c-0.6-0.1-2.2-0.1-3.7,0.9c-2.3,1.5-2.6,4.1-2.7,4.6c-0.2,2.7,1.4,4.5,1.7,4.8C83.9,70.9,84,71.6,84,72.3z
	 M84.8,62.4c1.5-1.2,3.9-0.8,5.3,0.9s1.4,4.1-0.1,5.4c-1.5,1.2-3.9,0.8-5.3-0.9C83.3,66,83.3,63.6,84.8,62.4z"/>
<linearGradient id="SVGID_2_" gradientUnits="userSpaceOnUse" x1="-69.8174" y1="221.8676" x2="216.0253" y2="125.8676">
	<stop  offset="0.4541" style="stop-color:#FFFFFF"/>
	<stop  offset="0.9966" style="stop-color:#EFEFEF"/>
</linearGradient>
<path class="st1" d="M149.9,207.7c4.3-10.3,4.9-19.8,3.7-25.9c-0.1-0.5,0.1-1.1,0.5-1.5c11.3-9.4,37.6-32.1,45.4-75.8
	c2.4-13.4,2.3-25.6,1.2-35.6c-0.6-5.3-4.8-9.5-10.1-10.1c-10.1-1.1-22.2-1.2-35.6,1.2c-43.7,7.8-70.7,36.4-80.3,47.8
	c-0.4,0.4-0.9,0.6-1.5,0.5c-6.2-1.5-16.3-3.4-27.4,0.2c-36.5,12-43.5,46.9-45.3,52.1c-0.1,0.2-0.1,0.5-0.1,0.7h0
	c0.1,0.9,1,1.4,1.9,1.2c15.9-4.6,53.9-2.7,75.6,19.1c22.1,22.1,33.3,43,33.5,65c0,0.7,0.5,1.3,1.3,1.4c0.1,0,0.3,0,0.4,0.1
	c0.3,0,0.6,0,0.8-0.1C118.7,245.6,139.4,232.8,149.9,207.7z M123.6,135.9c-7.9-7.9-5.9-22.7,4.4-33s25.1-12.3,33-4.4
	c7.9,7.9,5.9,22.7-4.4,33S131.5,143.7,123.6,135.9z"/>
<g>
	<linearGradient id="SVGID_3_" gradientUnits="userSpaceOnUse" x1="133.3893" y1="20.3765" x2="174.4293" y2="20.3765">
		<stop  offset="0.4541" style="stop-color:#FFFFFF"/>
		<stop  offset="0.9966" style="stop-color:#EFEFEF"/>
	</linearGradient>
	<path class="st2" d="M174.4,20.4c-2.6,0.3-4.8,0.6-6.7,0.9c-2.7,0.5-4.8,1-6.5,1.8c-2.2,1-3.6,2.5-4.7,4.7
		c-0.8,1.7-1.3,3.8-1.8,6.5c-0.3,1.9-0.6,4.1-0.9,6.7c-0.3-2.6-0.6-4.8-0.9-6.7c-0.5-2.7-1-4.8-1.8-6.5c-1-2.2-2.5-3.6-4.7-4.7
		c-1.7-0.8-3.8-1.3-6.5-1.8c-1.9-0.3-4.1-0.6-6.7-0.9c2.6-0.3,4.8-0.6,6.7-0.9c2.7-0.5,4.8-1,6.5-1.8c2.2-1,3.6-2.5,4.7-4.7
		c0.8-1.7,1.3-3.8,1.8-6.5c0.3-1.9,0.6-4.1,0.9-6.7c0.3,2.6,0.6,4.8,0.9,6.7c0.5,2.7,1,4.8,1.8,6.5c1,2.2,2.5,3.6,4.7,4.7
		c1.7,0.8,3.8,1.3,6.5,1.8C169.7,19.8,171.9,20.1,174.4,20.4z"/>
</g>
<g>
	<linearGradient id="SVGID_4_" gradientUnits="userSpaceOnUse" x1="105.8917" y1="189.8765" x2="136.6717" y2="189.8765">
		<stop  offset="0" style="stop-color:#6772D6"/>
		<stop  offset="1" style="stop-color:#555ABE"/>
	</linearGradient>
	<path class="st3" d="M136.7,189.9c-2.5,0.3-4.6,0.6-6.3,0.9c-2.6,0.5-4.4,1.3-5.7,2.5c-1.3,1.3-2,3-2.5,5.7
		c-0.4,1.7-0.6,3.8-0.9,6.3c-0.3-2.5-0.6-4.6-0.9-6.3c-0.5-2.6-1.3-4.4-2.5-5.7c-1.3-1.3-3-2-5.7-2.5c-1.7-0.4-3.8-0.6-6.3-0.9
		c2.5-0.3,4.6-0.6,6.3-0.9c2.6-0.5,4.4-1.3,5.7-2.5c1.3-1.3,2-3,2.5-5.7c0.4-1.7,0.6-3.8,0.9-6.3c0.3,2.5,0.6,4.6,0.9,6.3
		c0.5,2.6,1.3,4.4,2.5,5.7c1.3,1.3,3,2,5.7,2.5C132.1,189.3,134.2,189.6,136.7,189.9z"/>
</g>
<g>
	<linearGradient id="SVGID_5_" gradientUnits="userSpaceOnUse" x1="72.0217" y1="130.8765" x2="92.5417" y2="130.8765">
		<stop  offset="0" style="stop-color:#6772D6"/>
		<stop  offset="1" style="stop-color:#555ABE"/>
	</linearGradient>
	<path class="st4" d="M92.5,130.9c-4.3,0.5-6.6,0.9-8,2.3s-1.8,3.7-2.3,8c-0.5-4.3-0.9-6.6-2.3-8c-1.4-1.4-3.7-1.8-8-2.3
		c4.3-0.5,6.6-0.9,8-2.3c1.4-1.4,1.8-3.7,2.3-8c0.5,4.3,0.9,6.6,2.3,8S88.3,130.4,92.5,130.9z"/>
</g>
<g>
	<linearGradient id="SVGID_6_" gradientUnits="userSpaceOnUse" x1="180.4624" y1="181.3765" x2="219.3561" y2="181.3765">
		<stop  offset="0.4541" style="stop-color:#FFFFFF"/>
		<stop  offset="0.9966" style="stop-color:#EFEFEF"/>
	</linearGradient>
	<path class="st5" d="M219.4,181.4c-3.2,0.4-5.8,0.7-7.9,1.1c-3.3,0.7-5.6,1.6-7.2,3.2c-1.6,1.6-2.5,3.8-3.2,7.2
		c-0.4,2.1-0.8,4.7-1.1,7.9c-0.4-3.2-0.7-5.8-1.1-7.9c-0.7-3.3-1.6-5.6-3.2-7.2c-1.6-1.6-3.8-2.5-7.2-3.2c-2.1-0.4-4.7-0.8-7.9-1.1
		c3.2-0.4,5.8-0.7,7.9-1.1c3.3-0.7,5.6-1.6,7.2-3.2c1.6-1.6,2.5-3.8,3.2-7.2c0.4-2.1,0.8-4.7,1.1-7.9c0.4,3.2,0.7,5.8,1.1,7.9
		c0.7,3.3,1.6,5.6,3.2,7.2c1.6,1.6,3.8,2.5,7.2,3.2C213.6,180.7,216.2,181,219.4,181.4z"/>
</g>
<g>
	<linearGradient id="SVGID_7_" gradientUnits="userSpaceOnUse" x1="30.5193" y1="64.3765" x2="61.2993" y2="64.3765">
		<stop  offset="0.4541" style="stop-color:#FFFFFF"/>
		<stop  offset="0.9966" style="stop-color:#EFEFEF"/>
	</linearGradient>
	<path class="st6" d="M61.3,64.4c-2.5,0.3-4.6,0.6-6.3,0.9c-2.6,0.5-4.4,1.3-5.7,2.5c-1.3,1.3-2,3-2.5,5.7c-0.4,1.7-0.6,3.8-0.9,6.3
		c-0.3-2.5-0.6-4.6-0.9-6.3c-0.5-2.6-1.3-4.4-2.5-5.7c-1.3-1.3-3-2-5.7-2.5c-1.7-0.4-3.8-0.6-6.3-0.9c2.5-0.3,4.6-0.6,6.3-0.9
		c2.6-0.5,4.4-1.3,5.7-2.5c1.3-1.3,2-3,2.5-5.7c0.4-1.7,0.6-3.8,0.9-6.3c0.3,2.5,0.6,4.6,0.9,6.3c0.5,2.6,1.3,4.4,2.5,5.7
		c1.3,1.3,3,2,5.7,2.5C56.7,63.8,58.8,64.1,61.3,64.4z"/>
</g>
<linearGradient id="SVGID_8_" gradientUnits="userSpaceOnUse" x1="-62.6958" y1="254.3983" x2="223.1469" y2="158.3983">
	<stop  offset="0.4541" style="stop-color:#FFFFFF"/>
	<stop  offset="0.9966" style="stop-color:#EFEFEF"/>
</linearGradient>
<path class="st7" d="M65.6,214l-47.3,36.8c-3.6,2.8-8.4-1.6-5.8-5.4l33-49.5c2.3-3.4,6.9-4.3,10.2-2c2.9,2,5.6,4.3,8.2,6.8
	c0.9,0.9,1.7,1.7,2.5,2.6C69.4,206.3,69,211.3,65.6,214z"/>
<linearGradient id="SVGID_9_" gradientUnits="userSpaceOnUse" x1="-54.0319" y1="280.1952" x2="231.8108" y2="184.1952">
	<stop  offset="0.4541" style="stop-color:#FFFFFF"/>
	<stop  offset="0.9966" style="stop-color:#EFEFEF"/>
</linearGradient>
<path class="st8" d="M87.5,238.2L67,249.3c-2.3,1.2-4.6-1.5-3-3.5l15.2-19.6c1.6-2,4.6-1.8,6,0.3c1.4,2.2,2.7,4.5,3.8,6.7
	C89.9,235.1,89.2,237.2,87.5,238.2z"/>
<linearGradient id="SVGID_10_" gradientUnits="userSpaceOnUse" x1="-72.9495" y1="223.8675" x2="212.8932" y2="127.8675">
	<stop  offset="0.4541" style="stop-color:#FFFFFF"/>
	<stop  offset="0.9966" style="stop-color:#EFEFEF"/>
</linearGradient>
<path class="st9" d="M31.5,188.4L9.8,207.7c-1.6,1.4-4-0.4-3-2.3l10.9-22.8c0.7-1.4,2.1-2.1,3.6-1.9c2.9,0.4,5.8,1,8.6,1.8
	C32.7,183.2,33.5,186.6,31.5,188.4z"/>
<linearGradient id="SVGID_11_" gradientUnits="userSpaceOnUse" x1="212.6012" y1="125.5569" x2="233.8289" y2="125.5569">
	<stop  offset="0.4541" style="stop-color:#FFFFFF"/>
	<stop  offset="0.9966" style="stop-color:#EFEFEF"/>
</linearGradient>
<path class="st11" d="M233.8,153.3c0-0.2-0.1-0.6-0.1-1.2c-0.3-2.3-0.7-6.6-0.9-7.7c0-0.3-0.1-0.5-0.2-0.7c-0.1-0.5-0.3-0.7-0.4-0.9
	c-0.1-0.1-0.2-0.2-0.2-0.4c0-0.1-0.1-0.2-0.1-0.3c-0.1-0.5-0.2-1.1-0.2-1.1c0-0.1-0.1-1.4-0.1-1.9c0-0.1,0-0.3-0.1-0.4
	c-0.1-0.2-0.1-0.2-0.2-0.3l0,0l0,0c0,0,0,0,0,0c0-0.4-0.1-0.9-0.1-0.9l0-0.4c0.6-0.2,0.8-1,0.8-1.2c0,0,0.1,0,0.1,0
	c0.2-0.1,0.8-0.8,0.6-1.5l-3.9-13.3l0,0l0.1-0.2l-0.1-0.2l0,0l0.2,0.7l0.5-0.1c0.1,0,0.2,0,0.1-0.2c-0.1-0.2-0.4-0.2-0.4-0.2
	l-0.1-0.4c0.1-0.1,0.2-0.2,0.2-0.3c0-0.1-0.2-0.2-0.3-0.2l0-0.1c0.2-0.4-0.2-0.9-0.2-0.9l-0.1-0.3l0.1-0.1l-0.1-0.4
	c0.3-0.3-0.1-0.4-0.1-0.4l-0.1-0.4l-0.1,0l0-0.1l0,0c0-0.1,0.1-0.1,0-0.2c-0.1-0.4-0.3-0.4-0.6-0.3l-0.1,0c0,0,0-0.1,0-0.1
	c0,0,0-0.1-0.1-0.1l0.1,0c0.1,0,0.2-0.1,0.1-0.2l0-0.1c0,0,0,0,0,0c0-0.1,0-0.2,0-0.4c-0.1-0.2-0.5-1.5-0.9-2.8
	c-0.4-1.3-0.8-2.7-0.9-2.9c0-0.1-0.1-0.2-0.2-0.3l0-0.2c0-0.1-0.1-0.4-0.5-0.3l0.1,0l-1.4-4.7c0-0.1,0-0.1-0.1-0.2c0,0,0,0,0-0.1
	c0,0,0-0.1-0.1-0.1c0,0,0,0,0,0c0,0,0-0.1-0.1-0.1c0,0,0,0,0,0c0,0,0,0-0.1-0.1c0,0,0,0,0,0c0,0-0.1,0-0.1-0.1c0,0,0,0,0,0
	c-0.1,0-0.2-0.1-0.3-0.1c0,0,0,0,0,0c0,0-0.1,0-0.1,0l0,0c-0.2,0-0.3-0.1-0.5-0.1c0,0,0,0,0,0c-0.1,0-0.2,0-0.2-0.1c0,0,0,0,0,0
	c0,0,0,0-0.1,0c-0.1-0.1-0.2-0.1-0.3-0.2l0,0l0,0c-0.2-0.2-0.3-0.3-0.3-0.6l0,0l0,0c0,0,0,0,0,0l-1.1-3.6l0.3-0.1l1.6-1.5
	c0.1,0.1,0.2,0.1,0.4,0c0.2-0.1,0.3-0.2,0.3-0.3l-0.1-0.2l0,0l-0.1-0.4l0-0.1l-0.1-0.2c0-0.1-0.2-0.1-0.4-0.1
	c-0.2,0-0.3,0.1-0.3,0.2l0,0l0,0c0,0-0.7,0.3-1.3,0.4c0,0,0,0,0,0c0,0,0-0.1,0-0.1l0,0l-0.5,0.1c0,0-0.4,0-0.5-0.3l0,0l-0.1-0.3l0,0
	c0-0.2-0.3-0.2-0.6-0.1c-0.3,0.1-0.4,0.3-0.4,0.4l0,0l0.2,0.6c0,0,0.1,0.4-0.3,0.7c0,0,0,0.3,0.2,0.7c0,0.1,0,0.1,0,0.2l1.8,6.1
	c-0.1,0.1-0.2,0.3-0.1,0.5l0.1,0.2c0,0,0.2,0,0.3,0.1l0,0l1.5,5.1c-0.3,0.2-0.2,0.5-0.1,0.9c0.1,0.2,0.1,0.5,0.2,0.9
	c0.1,0.7,0.3,1.9,0.7,3.1c0.5,1.8,0.7,3,0.7,3.8c0,0.2,0,0.3,0.1,0.5c0,0.1,0,0.1,0.1,0.2c0,0.1,0.1,0.2,0.1,0.2
	c0,0.1,0.1,0.1,0.1,0.2c0,0,0,0,0.1,0c0.1,0.1,0.2,0.2,0.2,0.3l0,0.1l0,0c0,0,0.3,1.2,0.6,2.7l-0.2,0.5c-0.2,0-1.2,0.2-2.6,0
	c-1.5-0.2-3.8-0.9-6.4-3l0,0c-0.1,0-0.1,0-0.2,0.1c-0.1,0.1-0.2,0.2-0.3,0.3c-0.2,0.3-0.5,0.6-0.9,1c-0.7,0.8-1.3,1.5-1.3,1.5
	l-0.1,0.1l0.1,0.1c0,0,1.3,1.3,3.6,2.5c1.9,1,5,2,8.6,1.7c0,0.1,0.1,0.3,0,0.4l0,0c-0.4,0.1-0.7,0.2-0.7,0.5l0,0
	c0,0-0.5,0.3-0.7,0.4l0,0.1l0.3-0.1c0,0,0.1-0.2,0.3-0.1l0,0.1l0.2-0.1l0,0c0.1,0,0.1,0.1,0,0.2c0,0,0,0,0,0.1
	c-0.1,0.1-0.3,0.5-0.1,1.1c0.1,0.3,0.1,0.5,0.2,0.7c0.1,0.4,0.2,0.9,0.3,1.3c0,0.1,0,0.2,0.1,0.2c0.1,0.4,0.4,0.6,0.6,0.7
	c-0.1,0.2-0.3,0.4-0.8,0.8c-1.3,1-2.1,1.8-2.8,2.2c-0.7,0.4-1,0.4-0.5,1.5c0.5,1.2,1.4,1.3,1.8,1.2c0.4-0.1,1.8-1.5,2.5-1.9
	c0.6-0.5,1-0.6,1.4-0.5c0.3,0.1,0.8,0.1,1-0.1l0,0.1l0.4,0.1c0,0.2,0,0.7,0.1,1c0,0.1,0,0.1,0,0.2c-0.3,0.2-0.4,0.8-0.4,1.8
	c0,0.3,0,0.6-0.1,1c-0.1,1.5-1.5,10.6-1.8,11.8c-0.1,0.3-0.1,0.6,0,0.8c0.1,0.4,0.6,0.6,1.3,0.5c1.2-0.3,5.4-0.6,5.8-0.6
	c0.2,0,0.4,0,0.6-0.2C233.8,153.9,233.9,153.7,233.8,153.3z M220.4,97.3c0.2-0.1,0.4,0.1,0.5,0.3l0.2,0.7l-0.6,0.6l-0.3-1.1
	C220.1,97.6,220.2,97.4,220.4,97.3z M226.4,133.8c0,0-0.4,0-0.7,0.2c-0.1,0-0.1,0.1-0.1,0.1c-0.1-0.1-0.3-0.2-0.4-0.5
	c-0.2-0.5-0.3-1-0.4-1.5c-0.1-0.2-0.1-0.5-0.2-0.8c-0.2-0.6,0.1-0.8,0.1-0.9l1.2-0.4c0,0,0,0,0.1,0c0,0,0.1,0,0.1,0
	c0,0,0.1,0,0.2,0.3c0.1,0.3,0.3,1,0.4,1.4c0,0.2,0.1,0.3,0.1,0.3c0,0.1-0.1,0.3-0.4,0.3c-0.4,0.1-0.6,0.3-1.2-0.4c0,0-0.1,0,0,0.2
	c0.1,0.2,0.4,0.4,0.6,0.5c0.2,0.1,0.8,0.1,0.8,0.1l0.1,0.2c0,0,0.2,0.2,0.4,0.3l0,0L226.4,133.8z"/>
</svg>
