<?xml version="1.0" encoding="utf-8"?>
<!-- Generator: Adobe Illustrator 25.2.1, SVG Export Plug-In . SVG Version: 6.00 Build 0)  -->
<svg version="1.1" id="Layer_1" xmlns="http://www.w3.org/2000/svg" xmlns:xlink="http://www.w3.org/1999/xlink" x="0px" y="0px"
	 viewBox="0 0 234 252" style="enable-background:new 0 0 234 252;" xml:space="preserve">
<style type="text/css">
	.st0{fill:url(#SVGID_1_);}
	.st1{fill:url(#SVGID_2_);}
	.st2{fill:url(#SVGID_3_);}
	.st3{fill:url(#SVGID_4_);}
	.st4{fill:url(#SVGID_5_);}
	.st5{fill:url(#SVGID_6_);}
	.st6{fill:url(#SVGID_7_);}
	.st7{fill:url(#SVGID_8_);}
	.st8{fill:url(#SVGID_9_);}
</style>
<linearGradient id="SVGID_1_" gradientUnits="userSpaceOnUse" x1="82.2343" y1="213.3" x2="108.4726" y2="213.3" gradientTransform="matrix(1 0 0 -1 0 254)">
	<stop  offset="0.4541" style="stop-color:#FFFFFF"/>
	<stop  offset="0.9966" style="stop-color:#EFEFEF"/>
</linearGradient>
<path class="st0" d="M84,72.3c0.9-0.4,2.1-0.9,3.6-1.2c1.2-0.3,2.3-0.4,3.2-0.4c0.2-0.1,0.4-0.2,0.5-0.3c0.2,0.1,0.6,0.2,1,0.1
	c0.5-0.1,0.9-0.3,1.1-0.4c3-3.3,4.1-4.8,4.3-5.4c0-0.1,0.2-0.5,0.5-0.9s0.7-0.7,1-0.9c0.8-1,1.6-2.2,2.4-3.5c1.8-3,2.9-5.8,3.7-8.2
	c-0.3-1-0.8-3.3,0-6.1c0.7-2.6,2.2-4.2,3-4.9c0.1-0.5,0.1-1.1,0.2-1.6c-0.1-0.2-0.3-0.5-0.4-0.7c-0.1,0-0.1,0-0.3,0
	c-0.1,0-0.2-0.1-0.2-0.2c0.4-2.5,1-8.2-1.7-14.5c-4.2-9.7-13.1-13.4-15-14.1c1.8,1.4,5.3,4.8,7.2,10.3c3,9.2-1.1,17-1.9,18.5
	c-0.1,0-0.2,0-0.3,0c-0.8,0.8-1.2,1.5-1,1.9c0.1,0.3,0.3,0.4,0.3,0.4c0.1,0.1,0.2,0.1,0.3,0.1c2.2,0.7,3.5,2.9,3.2,5
	c-0.3,1.7-1.6,3.1-3.3,3.6c0.2,0.5,0.5,1.7,0.1,3c-0.7,2.6-3.3,3.5-3.5,3.6c0,0.2-0.1,3.4-2.2,4.3c-0.3,0.1-0.6,0.2-1,0.2
	c-0.6-0.1-2.2-0.1-3.7,0.9c-2.3,1.5-2.6,4.1-2.7,4.6c-0.2,2.7,1.4,4.5,1.7,4.8C83.9,70.9,84,71.6,84,72.3z M84.8,62.4
	c1.5-1.2,3.9-0.8,5.3,0.9c1.4,1.7,1.4,4.1-0.1,5.4c-1.5,1.2-3.9,0.8-5.3-0.9C83.3,66,83.3,63.6,84.8,62.4z"/>
<linearGradient id="SVGID_2_" gradientUnits="userSpaceOnUse" x1="-69.8105" y1="32.1165" x2="216.0308" y2="128.116" gradientTransform="matrix(1 0 0 -1 0 254)">
	<stop  offset="0.4541" style="stop-color:#FFFFFF"/>
	<stop  offset="0.9966" style="stop-color:#EFEFEF"/>
</linearGradient>
<path class="st1" d="M200.7,68.9c-0.6-5.3-4.8-9.5-10.1-10.1c-10.1-1.1-22.2-1.2-35.6,1.2c-43.7,7.8-70.7,36.4-80.3,47.8
	c-0.4,0.4-0.9,0.6-1.5,0.5c-6.2-1.5-16.3-3.4-27.4,0.2c-36.5,12-43.5,46.9-45.3,52.1c-0.1,0.2-0.1,0.5-0.1,0.7
	c0.1,0.8,0.8,1.2,1.5,1.2c0.1,0,0.3,0,0.4,0c15.9-4.6,53.9-2.7,75.6,19.1c22.1,22.1,33.3,43,33.5,65c0,0.7,0.5,1.3,1.3,1.4
	c0.1,0,0.3,0,0.4,0.1c0.3,0,0.6,0,0.8-0.1c4.8-2.4,25.5-15.2,36-40.3c4.3-10.3,4.9-19.8,3.7-25.9c-0.1-0.5,0.1-1.1,0.5-1.5
	c11.3-9.4,37.6-32.1,45.4-75.8C201.9,91.1,201.8,78.9,200.7,68.9z M84.5,133.2c-1.4,1.4-1.8,3.7-2.3,8c-0.5-4.3-0.9-6.6-2.3-8
	c-1.4-1.4-3.7-1.8-8-2.3c4.3-0.5,6.6-0.9,8-2.3c1.4-1.4,1.8-3.7,2.3-8c0.5,4.3,0.9,6.6,2.3,8c1.4,1.4,3.8,1.8,8,2.3
	C88.2,131.4,85.9,131.8,84.5,133.2z M130.4,190.8c-2.6,0.5-4.4,1.3-5.7,2.5c-1.3,1.3-2,3-2.5,5.7c-0.4,1.7-0.6,3.8-0.9,6.3
	c-0.3-2.5-0.6-4.6-0.9-6.3c-0.5-2.6-1.3-4.4-2.5-5.7c-1.3-1.3-3-2-5.7-2.5c-1.7-0.4-3.8-0.6-6.3-0.9c2.5-0.3,4.6-0.6,6.3-0.9
	c2.6-0.5,4.4-1.3,5.7-2.5c1.3-1.3,2-3,2.5-5.7c0.4-1.7,0.6-3.8,0.9-6.3c0.3,2.5,0.6,4.6,0.9,6.3c0.5,2.6,1.3,4.4,2.5,5.7
	c1.3,1.3,3,2,5.7,2.5c1.7,0.3,3.8,0.6,6.3,0.9C134.2,190.2,132.1,190.5,130.4,190.8z M156.6,131.5c-10.3,10.3-25.1,12.2-33,4.4
	c-7.9-7.9-5.9-22.7,4.4-33c10.3-10.3,25.1-12.3,33-4.4S166.9,121.2,156.6,131.5z"/>
<g>
	
		<linearGradient id="SVGID_3_" gradientUnits="userSpaceOnUse" x1="133.3893" y1="233.6" x2="174.4293" y2="233.6" gradientTransform="matrix(1 0 0 -1 0 254)">
		<stop  offset="0.4541" style="stop-color:#FFFFFF"/>
		<stop  offset="0.9966" style="stop-color:#EFEFEF"/>
	</linearGradient>
	<path class="st2" d="M174.4,20.4c-2.6,0.3-4.8,0.6-6.7,0.9c-2.7,0.5-4.8,1-6.5,1.8c-2.2,1-3.6,2.5-4.7,4.7
		c-0.8,1.7-1.3,3.8-1.8,6.5c-0.3,1.9-0.6,4.1-0.9,6.7c-0.3-2.6-0.6-4.8-0.9-6.7c-0.5-2.7-1-4.8-1.8-6.5c-1-2.2-2.5-3.6-4.7-4.7
		c-1.7-0.8-3.8-1.3-6.5-1.8c-1.9-0.3-4.1-0.6-6.7-0.9c2.6-0.3,4.8-0.6,6.7-0.9c2.7-0.5,4.8-1,6.5-1.8c2.2-1,3.6-2.5,4.7-4.7
		c0.8-1.7,1.3-3.8,1.8-6.5c0.3-1.9,0.6-4.1,0.9-6.7c0.3,2.6,0.6,4.8,0.9,6.7c0.5,2.7,1,4.8,1.8,6.5c1,2.2,2.5,3.6,4.7,4.7
		c1.7,0.8,3.8,1.3,6.5,1.8C169.7,19.8,171.9,20.1,174.4,20.4z"/>
</g>
<g>
	
		<linearGradient id="SVGID_4_" gradientUnits="userSpaceOnUse" x1="180.4624" y1="72.6" x2="219.3561" y2="72.6" gradientTransform="matrix(1 0 0 -1 0 254)">
		<stop  offset="0.4541" style="stop-color:#FFFFFF"/>
		<stop  offset="0.9966" style="stop-color:#EFEFEF"/>
	</linearGradient>
	<path class="st3" d="M219.4,181.4c-3.2,0.4-5.8,0.7-7.9,1.1c-3.3,0.7-5.6,1.6-7.2,3.2c-1.6,1.6-2.5,3.8-3.2,7.2
		c-0.4,2.1-0.8,4.7-1.1,7.9c-0.4-3.2-0.7-5.8-1.1-7.9c-0.7-3.3-1.6-5.6-3.2-7.2c-1.6-1.6-3.8-2.5-7.2-3.2c-2.1-0.4-4.7-0.8-7.9-1.1
		c3.2-0.4,5.8-0.7,7.9-1.1c3.3-0.7,5.6-1.6,7.2-3.2c1.6-1.6,2.5-3.8,3.2-7.2c0.4-2.1,0.8-4.7,1.1-7.9c0.4,3.2,0.7,5.8,1.1,7.9
		c0.7,3.3,1.6,5.6,3.2,7.2c1.6,1.6,3.8,2.5,7.2,3.2C213.6,180.7,216.2,181,219.4,181.4z"/>
</g>
<g>
	
		<linearGradient id="SVGID_5_" gradientUnits="userSpaceOnUse" x1="30.5" y1="189.6" x2="61.3" y2="189.6" gradientTransform="matrix(1 0 0 -1 0 254)">
		<stop  offset="0.4541" style="stop-color:#FFFFFF"/>
		<stop  offset="0.9966" style="stop-color:#EFEFEF"/>
	</linearGradient>
	<path class="st4" d="M61.3,64.4c-2.5,0.3-4.6,0.6-6.3,0.9c-2.6,0.5-4.4,1.3-5.7,2.5c-1.3,1.3-2,3-2.5,5.7c-0.4,1.7-0.6,3.8-0.9,6.3
		c-0.3-2.5-0.6-4.6-0.9-6.3c-0.5-2.6-1.3-4.4-2.5-5.7c-1.3-1.3-3-2-5.7-2.5c-1.7-0.4-3.8-0.6-6.3-0.9c2.5-0.3,4.6-0.6,6.3-0.9
		c2.6-0.5,4.4-1.3,5.7-2.5c1.3-1.3,2-3,2.5-5.7c0.4-1.7,0.6-3.8,0.9-6.3c0.3,2.5,0.6,4.6,0.9,6.3c0.5,2.6,1.3,4.4,2.5,5.7
		c1.3,1.3,3,2,5.7,2.5C56.7,63.8,58.8,64.1,61.3,64.4z"/>
</g>
<linearGradient id="SVGID_6_" gradientUnits="userSpaceOnUse" x1="-62.6822" y1="-0.4387" x2="223.1605" y2="95.5613" gradientTransform="matrix(1 0 0 -1 0 254)">
	<stop  offset="0.4541" style="stop-color:#FFFFFF"/>
	<stop  offset="0.9966" style="stop-color:#EFEFEF"/>
</linearGradient>
<path class="st5" d="M65.6,214l-47.3,36.8c-3.6,2.8-8.4-1.6-5.8-5.4l33-49.5c2.3-3.4,6.9-4.3,10.2-2c2.9,2,5.6,4.3,8.2,6.8
	c0.9,0.9,1.7,1.7,2.5,2.6C69.4,206.3,69,211.3,65.6,214z"/>
<linearGradient id="SVGID_7_" gradientUnits="userSpaceOnUse" x1="-54.0456" y1="-26.1544" x2="231.7971" y2="69.8456" gradientTransform="matrix(1 0 0 -1 0 254)">
	<stop  offset="0.4541" style="stop-color:#FFFFFF"/>
	<stop  offset="0.9966" style="stop-color:#EFEFEF"/>
</linearGradient>
<path class="st6" d="M87.5,238.2L67,249.3c-2.3,1.2-4.6-1.5-3-3.5l15.2-19.6c1.6-2,4.6-1.8,6,0.3c1.4,2.2,2.7,4.5,3.8,6.7
	C89.9,235.1,89.2,237.2,87.5,238.2z"/>
<linearGradient id="SVGID_8_" gradientUnits="userSpaceOnUse" x1="-72.9672" y1="30.1851" x2="212.8755" y2="126.1851" gradientTransform="matrix(1 0 0 -1 0 254)">
	<stop  offset="0.4541" style="stop-color:#FFFFFF"/>
	<stop  offset="0.9966" style="stop-color:#EFEFEF"/>
</linearGradient>
<path class="st7" d="M31.5,188.4L9.8,207.7c-1.6,1.4-4-0.4-3-2.3l10.9-22.8c0.7-1.4,2.1-2.1,3.6-1.9c2.9,0.4,5.8,1,8.6,1.8
	C32.7,183.2,33.5,186.6,31.5,188.4z"/>
<linearGradient id="SVGID_9_" gradientUnits="userSpaceOnUse" x1="212.6012" y1="128.5701" x2="233.8289" y2="128.5701" gradientTransform="matrix(1 0 0 -1 0 254)">
	<stop  offset="0.4541" style="stop-color:#FFFFFF"/>
	<stop  offset="0.9966" style="stop-color:#EFEFEF"/>
</linearGradient>
<path class="st8" d="M233.8,153.3c0-0.2-0.1-0.6-0.1-1.2c-0.3-2.3-0.7-6.6-0.9-7.7c0-0.3-0.1-0.5-0.2-0.7c-0.1-0.5-0.3-0.7-0.4-0.9
	c-0.1-0.1-0.2-0.2-0.2-0.4c0-0.1-0.1-0.2-0.1-0.3c-0.1-0.5-0.2-1.1-0.2-1.1c0-0.1-0.1-1.4-0.1-1.9c0-0.1,0-0.3-0.1-0.4
	c-0.1-0.2-0.1-0.2-0.2-0.3l0,0l0,0l0,0c0-0.4-0.1-0.9-0.1-0.9v-0.4c0.6-0.2,0.8-1,0.8-1.2h0.1c0.2-0.1,0.8-0.8,0.6-1.5l-3.9-13.3
	l0,0l0.1-0.2l-0.1-0.2l0,0l0.2,0.7l0.5-0.1c0.1,0,0.2,0,0.1-0.2c-0.1-0.2-0.4-0.2-0.4-0.2l-0.1-0.4c0.1-0.1,0.2-0.2,0.2-0.3
	c0-0.1-0.2-0.2-0.3-0.2v-0.1c0.2-0.4-0.2-0.9-0.2-0.9l-0.1-0.3l0.1-0.1l-0.1-0.4c0.3-0.3-0.1-0.4-0.1-0.4l-0.1-0.4h-0.1v-0.1l0,0
	c0-0.1,0.1-0.1,0-0.2c-0.1-0.4-0.3-0.4-0.6-0.3h-0.1v-0.1c0,0,0-0.1-0.1-0.1h0.1c0.1,0,0.2-0.1,0.1-0.2v-0.1l0,0c0-0.1,0-0.2,0-0.4
	c-0.1-0.2-0.5-1.5-0.9-2.8s-0.8-2.7-0.9-2.9c0-0.1-0.1-0.2-0.2-0.3v-0.2c0-0.1-0.1-0.4-0.5-0.3h0.1l-1.4-4.7c0-0.1,0-0.1-0.1-0.2
	c0,0,0,0,0-0.1c0,0,0-0.1-0.1-0.1l0,0c0,0,0-0.1-0.1-0.1l0,0c0,0,0,0-0.1-0.1l0,0c0,0-0.1,0-0.1-0.1l0,0c-0.1,0-0.2-0.1-0.3-0.1l0,0
	h-0.1l0,0c-0.2,0-0.3-0.1-0.5-0.1l0,0c-0.1,0-0.2,0-0.2-0.1l0,0c0,0,0,0-0.1,0c-0.1-0.1-0.2-0.1-0.3-0.2l0,0l0,0
	c-0.2-0.2-0.3-0.3-0.3-0.6l0,0l0,0l0,0l-1.1-3.6l0.3-0.1l1.6-1.5c0.1,0.1,0.2,0.1,0.4,0s0.3-0.2,0.3-0.3l-0.1-0.2l0,0l-0.1-0.4v-0.1
	l-0.1-0.2c0-0.1-0.2-0.1-0.4-0.1s-0.3,0.1-0.3,0.2l0,0l0,0c0,0-0.7,0.3-1.3,0.4l0,0v-0.1l0,0l-0.5,0.1c0,0-0.4,0-0.5-0.3l0,0
	l-0.1-0.3l0,0c0-0.2-0.3-0.2-0.6-0.1s-0.4,0.3-0.4,0.4l0,0l0.2,0.6c0,0,0.1,0.4-0.3,0.7c0,0,0,0.3,0.2,0.7c0,0.1,0,0.1,0,0.2
	l1.8,6.1c-0.1,0.1-0.2,0.3-0.1,0.5l0.1,0.2c0,0,0.2,0,0.3,0.1l0,0l1.5,5.1c-0.3,0.2-0.2,0.5-0.1,0.9c0.1,0.2,0.1,0.5,0.2,0.9
	c0.1,0.7,0.3,1.9,0.7,3.1c0.5,1.8,0.7,3,0.7,3.8c0,0.2,0,0.3,0.1,0.5c0,0.1,0,0.1,0.1,0.2c0,0.1,0.1,0.2,0.1,0.2
	c0,0.1,0.1,0.1,0.1,0.2c0,0,0,0,0.1,0c0.1,0.1,0.2,0.2,0.2,0.3v0.1l0,0c0,0,0.3,1.2,0.6,2.7l-0.2,0.5c-0.2,0-1.2,0.2-2.6,0
	c-1.5-0.2-3.8-0.9-6.4-3l0,0c-0.1,0-0.1,0-0.2,0.1c-0.1,0.1-0.2,0.2-0.3,0.3c-0.2,0.3-0.5,0.6-0.9,1c-0.7,0.8-1.3,1.5-1.3,1.5
	l-0.1,0.1l0.1,0.1c0,0,1.3,1.3,3.6,2.5c1.9,1,5,2,8.6,1.7c0,0.1,0.1,0.3,0,0.4l0,0c-0.4,0.1-0.7,0.2-0.7,0.5l0,0
	c0,0-0.5,0.3-0.7,0.4v0.1l0.3-0.1c0,0,0.1-0.2,0.3-0.1v0.1l0.2-0.1l0,0c0.1,0,0.1,0.1,0,0.2c0,0,0,0,0,0.1c-0.1,0.1-0.3,0.5-0.1,1.1
	c0.1,0.3,0.1,0.5,0.2,0.7c0.1,0.4,0.2,0.9,0.3,1.3c0,0.1,0,0.2,0.1,0.2c0.1,0.4,0.4,0.6,0.6,0.7c-0.1,0.2-0.3,0.4-0.8,0.8
	c-1.3,1-2.1,1.8-2.8,2.2s-1,0.4-0.5,1.5c0.5,1.2,1.4,1.3,1.8,1.2c0.4-0.1,1.8-1.5,2.5-1.9c0.6-0.5,1-0.6,1.4-0.5
	c0.3,0.1,0.8,0.1,1-0.1v0.1l0.4,0.1c0,0.2,0,0.7,0.1,1c0,0.1,0,0.1,0,0.2c-0.3,0.2-0.4,0.8-0.4,1.8c0,0.3,0,0.6-0.1,1
	c-0.1,1.5-1.5,10.6-1.8,11.8c-0.1,0.3-0.1,0.6,0,0.8c0.1,0.4,0.6,0.6,1.3,0.5c1.2-0.3,5.4-0.6,5.8-0.6c0.2,0,0.4,0,0.6-0.2
	C233.8,153.9,233.9,153.7,233.8,153.3z M220.4,97.3c0.2-0.1,0.4,0.1,0.5,0.3l0.2,0.7l-0.6,0.6l-0.3-1.1
	C220.1,97.6,220.2,97.4,220.4,97.3z M226.4,133.8c0,0-0.4,0-0.7,0.2c-0.1,0-0.1,0.1-0.1,0.1c-0.1-0.1-0.3-0.2-0.4-0.5
	c-0.2-0.5-0.3-1-0.4-1.5c-0.1-0.2-0.1-0.5-0.2-0.8c-0.2-0.6,0.1-0.8,0.1-0.9l1.2-0.4c0,0,0,0,0.1,0h0.1c0,0,0.1,0,0.2,0.3
	c0.1,0.3,0.3,1,0.4,1.4c0,0.2,0.1,0.3,0.1,0.3c0,0.1-0.1,0.3-0.4,0.3c-0.4,0.1-0.6,0.3-1.2-0.4c0,0-0.1,0,0,0.2s0.4,0.4,0.6,0.5
	c0.2,0.1,0.8,0.1,0.8,0.1l0.1,0.2c0,0,0.2,0.2,0.4,0.3l0,0L226.4,133.8z"/>
</svg>
