<?xml version="1.0" encoding="utf-8"?>
<!-- Generator: Adobe Illustrator 25.2.1, SVG Export Plug-In . SVG Version: 6.00 Build 0)  -->
<svg version="1.1" id="Layer_1" xmlns="http://www.w3.org/2000/svg" xmlns:xlink="http://www.w3.org/1999/xlink" x="0px" y="0px"
	 viewBox="0 0 360.4 378.3" style="enable-background:new 0 0 360.4 378.3;" xml:space="preserve">
<linearGradient id="SVGID_1_" gradientUnits="userSpaceOnUse" x1="150.0958" y1="339.2" x2="176.3341" y2="339.2" gradientTransform="matrix(1 0 0 -1 0 380)">
	<stop  offset="0.4541" style="stop-color:#FFFFFF"/>
	<stop  offset="0.9966" style="stop-color:#EFEFEF"/>
</linearGradient>
<path style="fill:url(#SVGID_1_);" d="M151.9,72.4c0.9-0.4,2.1-0.9,3.6-1.2c1.2-0.3,2.3-0.4,3.2-0.4c0.2-0.1,0.4-0.2,0.5-0.3
	c0.2,0.1,0.6,0.2,1,0.1c0.5-0.1,0.9-0.3,1.1-0.4c3-3.3,4.1-4.8,4.3-5.4c0-0.1,0.2-0.5,0.5-0.9s0.7-0.7,1-0.9c0.8-1,1.6-2.2,2.4-3.5
	c1.8-3,2.9-5.8,3.7-8.2c-0.3-1-0.8-3.3,0-6.1c0.7-2.6,2.2-4.2,3-4.9c0.1-0.5,0.1-1.1,0.2-1.6c-0.1-0.2-0.3-0.5-0.4-0.7
	c-0.1,0-0.1,0-0.3,0c-0.1,0-0.2-0.1-0.2-0.2c0.4-2.5,1-8.2-1.7-14.5c-4.2-9.7-13.1-13.4-15-14.1c1.8,1.4,5.3,4.8,7.2,10.3
	c3,9.2-1.1,17-1.9,18.5c-0.1,0-0.2,0-0.3,0c-0.8,0.8-1.2,1.5-1,1.9c0.1,0.3,0.3,0.4,0.3,0.4c0.1,0.1,0.2,0.1,0.3,0.1
	c2.2,0.7,3.5,2.9,3.2,5c-0.3,1.7-1.6,3.1-3.3,3.6c0.2,0.5,0.5,1.7,0.1,3c-0.7,2.6-3.3,3.5-3.5,3.6c0,0.2-0.1,3.4-2.2,4.3
	c-0.3,0.1-0.6,0.2-1,0.2c-0.6-0.1-2.2-0.1-3.7,0.9c-2.3,1.5-2.6,4.1-2.7,4.6c-0.2,2.7,1.4,4.5,1.7,4.8
	C151.8,71,151.8,71.7,151.9,72.4z M152.7,62.5c1.5-1.2,3.9-0.8,5.3,0.9c1.4,1.7,1.4,4.1-0.1,5.4c-1.5,1.2-3.9,0.8-5.3-0.9
	S151.2,63.8,152.7,62.5z"/>
<linearGradient id="SVGID_2_" gradientUnits="userSpaceOnUse" x1="-1.9582" y1="158.0005" x2="283.8832" y2="254" gradientTransform="matrix(1 0 0 -1 0 380)">
	<stop  offset="0.4541" style="stop-color:#FFFFFF"/>
	<stop  offset="0.9966" style="stop-color:#EFEFEF"/>
</linearGradient>
<path style="fill:url(#SVGID_2_);" d="M268.6,69c-0.6-5.3-4.8-9.5-10.1-10.1c-10.1-1.1-22.2-1.2-35.6,1.2
	c-43.7,7.8-70.7,36.4-80.3,47.8c-0.4,0.4-0.9,0.6-1.5,0.5c-6.2-1.5-16.3-3.4-27.4,0.2c-36.5,12-43.5,46.9-45.3,52.1
	c-0.1,0.2-0.1,0.5-0.1,0.7c0.1,0.8,0.8,1.2,1.5,1.2c0.1,0,0.3,0,0.4,0c15.9-4.6,53.9-2.7,75.6,19.1c22.1,22.1,33.3,43,33.5,65
	c0,0.7,0.5,1.3,1.3,1.4c0.1,0,0.3,0,0.4,0.1c0.3,0,0.6,0,0.8-0.1c4.8-2.3,25.5-15.1,36-40.3c4.3-10.3,4.9-19.8,3.7-25.9
	c-0.1-0.5,0.1-1.1,0.5-1.5c11.3-9.4,37.6-32.1,45.4-75.8C269.8,91.2,269.7,79,268.6,69z M152.4,133.3c-1.4,1.4-1.8,3.7-2.3,8
	c-0.5-4.3-0.9-6.6-2.3-8c-1.4-1.4-3.7-1.8-8-2.3c4.3-0.5,6.6-0.9,8-2.3c1.4-1.4,1.8-3.7,2.3-8c0.5,4.3,0.9,6.6,2.3,8
	c1.4,1.4,3.7,1.8,8,2.3C156.1,131.5,153.8,131.9,152.4,133.3z M198.2,190.9c-2.6,0.5-4.4,1.3-5.7,2.5c-1.3,1.3-2,3-2.5,5.7
	c-0.4,1.7-0.6,3.8-0.9,6.3c-0.3-2.5-0.6-4.6-0.9-6.3c-0.5-2.6-1.3-4.4-2.5-5.7c-1.3-1.3-3-2-5.7-2.5c-1.7-0.4-3.8-0.6-6.3-0.9
	c2.5-0.3,4.6-0.6,6.3-0.9c2.6-0.5,4.4-1.3,5.7-2.5c1.3-1.3,2-3,2.5-5.7c0.4-1.7,0.6-3.8,0.9-6.3c0.3,2.5,0.6,4.6,0.9,6.3
	c0.5,2.6,1.3,4.4,2.5,5.7c1.3,1.3,3,2,5.7,2.5c1.8,0.4,3.8,0.6,6.3,0.9C202,190.3,199.9,190.6,198.2,190.9z M224.5,131.6
	c-10.3,10.3-25.1,12.3-33,4.4s-5.9-22.7,4.4-33c10.3-10.3,25.1-12.3,33-4.4C236.8,106.5,234.8,121.3,224.5,131.6z"/>
<g>
	
		<linearGradient id="SVGID_3_" gradientUnits="userSpaceOnUse" x1="201.2508" y1="359.5" x2="242.2908" y2="359.5" gradientTransform="matrix(1 0 0 -1 0 380)">
		<stop  offset="0.4541" style="stop-color:#FFFFFF"/>
		<stop  offset="0.9966" style="stop-color:#EFEFEF"/>
	</linearGradient>
	<path style="fill:url(#SVGID_3_);" d="M242.3,20.5c-2.6,0.3-4.8,0.6-6.7,0.9c-2.7,0.5-4.8,1-6.5,1.8c-2.2,1-3.6,2.5-4.7,4.7
		c-0.8,1.7-1.3,3.8-1.8,6.5c-0.3,1.9-0.6,4.1-0.9,6.7c-0.3-2.6-0.6-4.8-0.9-6.7c-0.5-2.7-1-4.8-1.8-6.5c-1-2.2-2.5-3.6-4.7-4.7
		c-1.7-0.8-3.8-1.3-6.5-1.8c-1.9-0.3-4.1-0.6-6.7-0.9c2.6-0.3,4.8-0.6,6.7-0.9c2.7-0.5,4.8-1,6.5-1.8c2.2-1,3.6-2.5,4.7-4.7
		c0.8-1.7,1.3-3.8,1.8-6.5c0.3-1.9,0.6-4.1,0.9-6.7c0.3,2.6,0.6,4.8,0.9,6.7c0.5,2.7,1,4.8,1.8,6.5c1,2.2,2.5,3.6,4.7,4.7
		c1.7,0.8,3.8,1.3,6.5,1.8C237.5,20,239.7,20.2,242.3,20.5z"/>
</g>
<g>
	
		<linearGradient id="SVGID_4_" gradientUnits="userSpaceOnUse" x1="248.3239" y1="198.5" x2="287.2177" y2="198.5" gradientTransform="matrix(1 0 0 -1 0 380)">
		<stop  offset="0.4541" style="stop-color:#FFFFFF"/>
		<stop  offset="0.9966" style="stop-color:#EFEFEF"/>
	</linearGradient>
	<path style="fill:url(#SVGID_4_);" d="M287.2,181.5c-3.2,0.4-5.8,0.7-7.9,1.1c-3.3,0.7-5.6,1.6-7.2,3.2c-1.6,1.6-2.5,3.8-3.2,7.2
		c-0.4,2.1-0.8,4.7-1.1,7.9c-0.4-3.2-0.7-5.8-1.1-7.9c-0.7-3.3-1.6-5.6-3.2-7.2c-1.6-1.6-3.8-2.5-7.2-3.2c-2.1-0.4-4.7-0.8-7.9-1.1
		c3.2-0.4,5.8-0.7,7.9-1.1c3.3-0.7,5.6-1.6,7.2-3.2c1.6-1.6,2.5-3.8,3.2-7.2c0.4-2.1,0.8-4.7,1.1-7.9c0.4,3.2,0.7,5.8,1.1,7.9
		c0.7,3.3,1.6,5.6,3.2,7.2c1.6,1.6,3.8,2.5,7.2,3.2C281.5,180.8,284.1,181.2,287.2,181.5z"/>
</g>
<g>
	
		<linearGradient id="SVGID_5_" gradientUnits="userSpaceOnUse" x1="98.4" y1="315.5" x2="129.2" y2="315.5" gradientTransform="matrix(1 0 0 -1 0 380)">
		<stop  offset="0.4541" style="stop-color:#FFFFFF"/>
		<stop  offset="0.9966" style="stop-color:#EFEFEF"/>
	</linearGradient>
	<path style="fill:url(#SVGID_5_);" d="M129.2,64.5c-2.5,0.3-4.6,0.6-6.3,0.9c-2.6,0.5-4.4,1.3-5.7,2.5c-1.3,1.3-2,3-2.5,5.7
		c-0.4,1.7-0.6,3.8-0.9,6.3c-0.3-2.5-0.6-4.6-0.9-6.3c-0.5-2.6-1.3-4.4-2.5-5.7c-1.3-1.3-3-2-5.7-2.5c-1.7-0.4-3.8-0.6-6.3-0.9
		c2.5-0.3,4.6-0.6,6.3-0.9c2.6-0.5,4.4-1.3,5.7-2.5c1.3-1.3,2-3,2.5-5.7c0.4-1.7,0.6-3.8,0.9-6.3c0.3,2.5,0.6,4.6,0.9,6.3
		c0.5,2.6,1.3,4.4,2.5,5.7c1.3,1.3,3,2,5.7,2.5C124.6,64,126.7,64.2,129.2,64.5z"/>
</g>
<linearGradient id="SVGID_6_" gradientUnits="userSpaceOnUse" x1="5.1701" y1="125.4453" x2="291.0128" y2="221.4453" gradientTransform="matrix(1 0 0 -1 0 380)">
	<stop  offset="0.4541" style="stop-color:#FFFFFF"/>
	<stop  offset="0.9966" style="stop-color:#EFEFEF"/>
</linearGradient>
<path style="fill:url(#SVGID_6_);" d="M133.5,214.1l-47.3,36.8c-3.6,2.8-8.4-1.6-5.8-5.4l33-49.5c2.3-3.4,6.9-4.3,10.2-2
	c2.9,2,5.6,4.3,8.2,6.8c0.9,0.9,1.7,1.7,2.5,2.6C137.3,206.4,136.9,211.5,133.5,214.1z"/>
<linearGradient id="SVGID_7_" gradientUnits="userSpaceOnUse" x1="13.8268" y1="99.6699" x2="299.6694" y2="195.6699" gradientTransform="matrix(1 0 0 -1 0 380)">
	<stop  offset="0.4541" style="stop-color:#FFFFFF"/>
	<stop  offset="0.9966" style="stop-color:#EFEFEF"/>
</linearGradient>
<path style="fill:url(#SVGID_7_);" d="M155.3,238.3l-20.5,11.2c-2.3,1.2-4.6-1.5-3-3.5l15.2-19.6c1.6-2,4.6-1.8,6,0.3
	c1.4,2.2,2.7,4.5,3.8,6.7C157.7,235.2,157,237.4,155.3,238.3z"/>
<linearGradient id="SVGID_8_" gradientUnits="userSpaceOnUse" x1="-5.1148" y1="156.0691" x2="280.7279" y2="252.0691" gradientTransform="matrix(1 0 0 -1 0 380)">
	<stop  offset="0.4541" style="stop-color:#FFFFFF"/>
	<stop  offset="0.9966" style="stop-color:#EFEFEF"/>
</linearGradient>
<path style="fill:url(#SVGID_8_);" d="M99.3,188.5l-21.6,19.3c-1.6,1.4-4-0.4-3-2.3l10.9-22.8c0.7-1.4,2.1-2.1,3.6-1.9
	c2.9,0.4,5.8,1,8.6,1.8C100.5,183.3,101.4,186.7,99.3,188.5z"/>
<g>
	<g>
		<path style="fill:#FFFFFF;" d="M34.8,346.5l-8.4,2.2c-0.4-1.7-3.6-3.5-8.8-3.5c-5.1,0-8.9,1.7-8.9,4s3.8,3.9,8.9,3.9
			c4.6,0,8.8,1,11.8,3c1.7,1.1,3.1,2.4,4.1,4c1,1.7,1.6,3.6,1.6,5.7c0,2-0.5,3.9-1.6,5.6c-1,1.6-2.4,2.9-4.1,4
			c-3.1,1.9-7.2,2.9-11.8,2.9c-9,0-15.6-3.8-17.2-9.8l8.3-2.2c0.5,1.6,3.6,3.4,8.9,3.4c5,0,8.9-1.7,8.9-3.9c0-2.3-3.8-4-8.9-4
			c-4.7,0-8.8-1-11.9-2.9c-1.7-1.1-3.1-2.4-4.1-4c-1-1.7-1.6-3.6-1.6-5.7c0-2,0.5-3.9,1.6-5.6c1-1.6,2.4-2.9,4.1-4
			c3.1-2,7.2-3,11.9-3C26.5,336.6,33.1,340.3,34.8,346.5z"/>
		<path style="fill:#FFFFFF;" d="M64.1,336.6h10.8l-13.1,17.5l13.1,24.2h-9.8l-9-16.6l-5.3,7.1v9.5h-8.6v-54.9h8.6v31.1L64.1,336.6z
			"/>
		<path style="fill:#FFFFFF;" d="M89.8,327.7c0,2.3-1.9,4.3-4.3,4.3c-2.3,0-4.3-2-4.3-4.3c0-2.4,2-4.3,4.3-4.3
			C88,323.4,89.8,325.3,89.8,327.7z M81.2,378.3v-41.7h8.6v41.7H81.2z"/>
		<path style="fill:#FFFFFF;" d="M122.9,337.8c2.2,0.9,4.1,2.1,5.7,3.7s2.8,3.5,3.6,5.6c0.9,2.2,1.3,4.6,1.3,7v24.2h-8.6v-24.2
			c0-2.7-0.8-4.9-2.4-6.5s-3.8-2.4-6.5-2.4s-5,0.9-6.6,2.4c-1.5,1.6-2.4,3.8-2.4,6.5v24.2h-8.6v-41.7h8.6v2.2l2-0.9
			c2.1-0.8,4.5-1.3,7-1.3C118.5,336.6,120.8,337,122.9,337.8z"/>
		<path style="fill:#FFFFFF;" d="M174.6,346.5l-8.4,2.2c-0.4-1.7-3.6-3.5-8.8-3.5c-5.1,0-8.9,1.7-8.9,4s3.8,3.9,8.9,3.9
			c4.6,0,8.8,1,11.8,3c1.7,1.1,3.1,2.4,4.1,4c1,1.7,1.6,3.6,1.6,5.7c0,2-0.5,3.9-1.6,5.6c-1,1.6-2.4,2.9-4.1,4
			c-3.1,1.9-7.2,2.9-11.8,2.9c-9,0-15.6-3.8-17.2-9.8l8.3-2.2c0.5,1.6,3.6,3.4,8.9,3.4c5,0,8.9-1.7,8.9-3.9c0-2.3-3.8-4-8.9-4
			c-4.7,0-8.8-1-11.9-2.9c-1.7-1.1-3.1-2.4-4.1-4c-1-1.7-1.6-3.6-1.6-5.7c0-2,0.5-3.9,1.6-5.6c1-1.6,2.4-2.9,4.1-4
			c3.1-2,7.2-3,11.9-3C166.3,336.6,172.9,340.3,174.6,346.5z"/>
		<path style="fill:#FFFFFF;" d="M199.7,336.6v8.6h-9.9v18.9c0,1.7,0.5,3.1,1.5,4.1c0.9,1,2.4,1.5,4.1,1.5h4.3v8.6h-4.3
			c-4,0-7.6-1.4-10.2-4c-2.6-2.6-4-6.2-4-10.2v-40.7h8.6v13.2H199.7z"/>
		<path style="fill:#FFFFFF;" d="M229.6,337.8c2.2,0.9,4.1,2.1,5.7,3.7c1.6,1.6,2.8,3.5,3.6,5.6c0.9,2.2,1.3,4.6,1.3,7v6.6
			c0,2.5-0.4,4.9-1.3,7c-0.8,2.2-2,4.1-3.6,5.6c-1.6,1.6-3.5,2.8-5.7,3.7c-2.1,0.9-4.5,1.3-6.9,1.3c-2.5,0-4.9-0.4-7-1.3
			c-2.2-0.9-4.1-2-5.6-3.7c-1.6-1.6-2.8-3.5-3.7-5.6s-1.3-4.5-1.3-7v-6.6c0-2.4,0.4-4.8,1.3-7c0.9-2.1,2-4.1,3.7-5.6
			c1.6-1.6,3.5-2.8,5.6-3.7c2.1-0.8,4.5-1.3,7-1.3C225.2,336.6,227.5,337,229.6,337.8z M216.2,347.6c-1.5,1.6-2.4,3.8-2.4,6.5v6.6
			c0,2.7,0.9,5,2.4,6.6c1.6,1.5,3.8,2.4,6.6,2.4c2.7,0,4.9-0.9,6.5-2.4c1.6-1.6,2.4-3.8,2.4-6.6v-6.6c0-2.7-0.8-4.9-2.4-6.5
			s-3.8-2.4-6.5-2.4C220,345.2,217.7,346.1,216.2,347.6z"/>
		<path style="fill:#FFFFFF;" d="M271.8,337.8c2.2,0.9,4.1,2.1,5.7,3.7s2.8,3.5,3.6,5.6c0.9,2.2,1.3,4.6,1.3,7v24.2h-8.6v-24.2
			c0-2.7-0.8-4.9-2.4-6.5s-3.8-2.4-6.5-2.4s-5,0.9-6.6,2.4c-1.5,1.6-2.4,3.8-2.4,6.5v24.2h-8.6v-41.7h8.6v2.2l2-0.9
			c2.1-0.8,4.5-1.3,7-1.3C267.3,336.6,269.7,337,271.8,337.8z"/>
		<path style="fill:#FFFFFF;" d="M313,336.6h10.8l-13.1,17.5l13.1,24.2H314l-9-16.6l-5.3,7.1v9.5H291v-54.9h8.6v31.1L313,336.6z"/>
		<path style="fill:#FFFFFF;" d="M360.1,346.5l-8.4,2.2c-0.4-1.7-3.6-3.5-8.8-3.5c-5.1,0-8.9,1.7-8.9,4s3.8,3.9,8.9,3.9
			c4.6,0,8.8,1,11.8,3c1.7,1.1,3.1,2.4,4.1,4c1,1.7,1.6,3.6,1.6,5.7c0,2-0.5,3.9-1.6,5.6c-1,1.6-2.4,2.9-4.1,4
			c-3.1,1.9-7.2,2.9-11.8,2.9c-9,0-15.6-3.8-17.2-9.8l8.3-2.2c0.5,1.6,3.6,3.4,8.9,3.4c5,0,8.9-1.7,8.9-3.9c0-2.3-3.8-4-8.9-4
			c-4.7,0-8.8-1-11.9-2.9c-1.7-1.1-3.1-2.4-4.1-4c-1-1.7-1.6-3.6-1.6-5.7c0-2,0.5-3.9,1.6-5.6c1-1.6,2.4-2.9,4.1-4
			c3.1-2,7.2-3,11.9-3C351.9,336.6,358.5,340.3,360.1,346.5z"/>
	</g>
</g>
<linearGradient id="SVGID_9_" gradientUnits="userSpaceOnUse" x1="280.4627" y1="254.3701" x2="301.6904" y2="254.3701" gradientTransform="matrix(1 0 0 -1 0 380)">
	<stop  offset="0.4541" style="stop-color:#FFFFFF"/>
	<stop  offset="0.9966" style="stop-color:#EFEFEF"/>
</linearGradient>
<path style="fill:url(#SVGID_9_);" d="M301.7,153.5c0-0.2-0.1-0.6-0.1-1.2c-0.3-2.3-0.7-6.6-0.9-7.7c0-0.3-0.1-0.5-0.2-0.7
	c-0.1-0.5-0.3-0.7-0.4-0.9c-0.1-0.1-0.2-0.2-0.2-0.4c0-0.1-0.1-0.2-0.1-0.3c-0.1-0.5-0.2-1.1-0.2-1.1c0-0.1-0.1-1.4-0.1-1.9
	c0-0.1,0-0.3-0.1-0.4c-0.1-0.2-0.1-0.2-0.2-0.3l0,0l0,0l0,0c0-0.4-0.1-0.9-0.1-0.9v-0.4c0.6-0.2,0.8-1,0.8-1.2h0.1
	c0.2-0.1,0.8-0.8,0.6-1.5l-3.9-13.3l0,0l0.1-0.2l-0.1-0.2l0,0l0.2,0.7l0.5-0.1c0.1,0,0.2,0,0.1-0.2s-0.4-0.2-0.4-0.2l-0.1-0.4
	c0.1-0.1,0.2-0.2,0.2-0.3c0-0.1-0.2-0.2-0.3-0.2v-0.1c0.2-0.4-0.2-0.9-0.2-0.9l-0.1-0.3l0.1-0.1l-0.1-0.4c0.3-0.3-0.1-0.4-0.1-0.4
	l-0.1-0.4h-0.1v-0.1l0,0c0-0.1,0.1-0.1,0-0.2c-0.1-0.4-0.3-0.4-0.6-0.3h-0.1v-0.1c0,0,0-0.1-0.1-0.1h0.1c0.1,0,0.2-0.1,0.1-0.2v-0.1
	l0,0c0-0.1,0-0.2,0-0.4c-0.1-0.2-0.5-1.5-0.9-2.8s-0.8-2.7-0.9-2.9c0-0.1-0.1-0.2-0.2-0.3v-0.2c0-0.1-0.1-0.4-0.5-0.3h0.1l-1.4-4.7
	c0-0.1,0-0.1-0.1-0.2c0,0,0,0,0-0.1c0,0,0-0.1-0.1-0.1l0,0c0,0,0-0.1-0.1-0.1l0,0c0,0,0,0-0.1-0.1l0,0c0,0-0.1,0-0.1-0.1l0,0
	c-0.1,0-0.2-0.1-0.3-0.1l0,0H291l0,0c-0.2,0-0.3-0.1-0.5-0.1l0,0c-0.1,0-0.2,0-0.2-0.1l0,0c0,0,0,0-0.1,0c-0.1-0.1-0.2-0.1-0.3-0.2
	l0,0l0,0c-0.2-0.2-0.3-0.3-0.3-0.6l0,0l0,0l0,0l-1.1-3.6l0.3-0.1l1.6-1.5c0.1,0.1,0.2,0.1,0.4,0c0.2-0.1,0.3-0.2,0.3-0.3l-0.1-0.2
	l0,0l-0.1-0.4v-0.1l-0.1-0.2c0-0.1-0.2-0.1-0.4-0.1c-0.2,0-0.3,0.1-0.3,0.2l0,0l0,0c0,0-0.7,0.3-1.3,0.4l0,0v-0.1l0,0l-0.5,0.1
	c0,0-0.4,0-0.5-0.3l0,0l-0.1-0.3l0,0c0-0.2-0.3-0.2-0.6-0.1c-0.3,0.1-0.4,0.3-0.4,0.4l0,0l0.2,0.6c0,0,0.1,0.4-0.3,0.7
	c0,0,0,0.3,0.2,0.7c0,0.1,0,0.1,0,0.2l1.8,6.1c-0.1,0.1-0.2,0.3-0.1,0.5l0.1,0.2c0,0,0.2,0,0.3,0.1l0,0l1.5,5.1
	c-0.3,0.2-0.2,0.5-0.1,0.9c0.1,0.2,0.1,0.5,0.2,0.9c0.1,0.7,0.3,1.9,0.7,3.1c0.5,1.8,0.7,3,0.7,3.8c0,0.2,0,0.3,0.1,0.5
	c0,0.1,0,0.1,0.1,0.2c0,0.1,0.1,0.2,0.1,0.2c0,0.1,0.1,0.1,0.1,0.2c0,0,0,0,0.1,0c0.1,0.1,0.2,0.2,0.2,0.3v0.1l0,0
	c0,0,0.3,1.2,0.6,2.7l-0.2,0.5c-0.2,0-1.2,0.2-2.6,0c-1.5-0.2-3.8-0.9-6.4-3l0,0c-0.1,0-0.1,0-0.2,0.1s-0.2,0.2-0.3,0.3
	c-0.2,0.3-0.5,0.6-0.9,1c-0.7,0.8-1.3,1.5-1.3,1.5l-0.1,0.1l0.1,0.1c0,0,1.3,1.3,3.6,2.5c1.9,1,5,2,8.6,1.7c0,0.1,0.1,0.3,0,0.4l0,0
	c-0.4,0.1-0.7,0.2-0.7,0.5l0,0c0,0-0.5,0.3-0.7,0.4v0.1l0.3-0.1c0,0,0.1-0.2,0.3-0.1v0.1l0.2-0.1l0,0c0.1,0,0.1,0.1,0,0.2
	c0,0,0,0,0,0.1c-0.1,0.1-0.3,0.5-0.1,1.1c0.1,0.3,0.1,0.5,0.2,0.7c0.1,0.4,0.2,0.9,0.3,1.3c0,0.1,0,0.2,0.1,0.2
	c0.1,0.4,0.4,0.6,0.6,0.7c-0.1,0.2-0.3,0.4-0.8,0.8c-1.3,1-2.1,1.8-2.8,2.2c-0.7,0.4-1,0.4-0.5,1.5c0.5,1.2,1.4,1.3,1.8,1.2
	s1.8-1.5,2.5-1.9c0.6-0.5,1-0.6,1.4-0.5c0.3,0.1,0.8,0.1,1-0.1v0.1l0.4,0.1c0,0.2,0,0.7,0.1,1c0,0.1,0,0.1,0,0.2
	c-0.3,0.2-0.4,0.8-0.4,1.8c0,0.3,0,0.6-0.1,1c-0.1,1.5-1.5,10.6-1.8,11.8c-0.1,0.3-0.1,0.6,0,0.8c0.1,0.4,0.6,0.6,1.3,0.5
	c1.2-0.3,5.4-0.6,5.8-0.6c0.2,0,0.4,0,0.6-0.2C301.7,154,301.7,153.8,301.7,153.5z M288.3,97.5c0.2-0.1,0.4,0.1,0.5,0.3l0.2,0.7
	l-0.6,0.6l-0.3-1.1C287.9,97.7,288.1,97.5,288.3,97.5z M294.2,133.9c0,0-0.4,0-0.7,0.2c-0.1,0-0.1,0.1-0.1,0.1
	c-0.1-0.1-0.3-0.2-0.4-0.5c-0.2-0.5-0.3-1-0.4-1.5c-0.1-0.2-0.1-0.5-0.2-0.8c-0.2-0.6,0.1-0.8,0.1-0.9l1.2-0.4c0,0,0,0,0.1,0h0.1
	c0,0,0.1,0,0.2,0.3s0.3,1,0.4,1.4c0,0.2,0.1,0.3,0.1,0.3c0,0.1-0.1,0.3-0.4,0.3c-0.4,0.1-0.6,0.3-1.2-0.4c0,0-0.1,0,0,0.2
	s0.4,0.4,0.6,0.5s0.8,0.1,0.8,0.1l0.1,0.2c0,0,0.2,0.2,0.4,0.3l0,0L294.2,133.9z"/>
</svg>
